<svg width="365" height="365" viewBox="0 0 365 365" fill="none"
    xmlns="http://www.w3.org/2000/svg">
    <path d="M10.625 203.125H38.4032C47.4509 267.024 97.9762 317.549 161.875 326.597V354.375V359.375H166.875H198.125H203.125V354.375V326.597C267.024 317.549 317.549 267.024 326.597 203.125H354.375H359.375V198.125V166.875V161.875H354.375H326.597C317.549 97.9762 267.024 47.4509 203.125 38.4032V10.625V5.625H198.125H166.875H161.875V10.625V38.4032C97.9762 47.4509 47.4509 97.9762 38.4032 161.875H10.625H5.625V166.875V198.125V203.125H10.625ZM182.5 115C145.207 115 115 145.207 115 182.5C115 219.793 145.207 250 182.5 250C219.793 250 250 219.793 250 182.5C250 145.207 219.793 115 182.5 115ZM182.5 286.875C124.793 286.875 78.125 240.207 78.125 182.5C78.125 124.793 124.793 78.125 182.5 78.125C240.207 78.125 286.875 124.793 286.875 182.5C286.875 240.207 240.207 286.875 182.5 286.875Z" fill="#13A84C" stroke="white" stroke-width="10"/>
</svg>
